<svg width="400" height="340" fill="none" xmlns="http://www.w3.org/2000/svg"><g filter="url(#filter0_d_2341_741)"><path d="M15.592 46.217c3.884-12.297 17.487-22.266 30.383-22.266h134.638c10.252 0 16.06 7.925 12.972 17.701l-8.475 26.831H31.909c-12.896 0-20.202-9.969-16.317-22.266Z" fill="#071322"/><g filter="url(#filter1_d_2341_741)"><path d="M40.424 45.983h4.038l-.374 1.184H40.05l.374-1.184Zm-.932 3.32h4.583l-.381 1.205h-6.091l2.446-7.744h5.928l-.38 1.206h-4.42l-1.685 5.332Zm12.767 1.205.378-1.195-.001-.254.66-2.091c.128-.406.1-.72-.085-.94-.183-.23-.534-.343-1.052-.343a4.05 4.05 0 0 0-1.082.154 3.7 3.7 0 0 0-.983.432l-.25-1.007c.409-.243.86-.424 1.354-.542a6.183 6.183 0 0 1 1.498-.188c.897 0 1.524.206 1.881.62.367.405.415 1.036.145 1.891l-1.094 3.463H52.26Zm-1.973.078c-.464 0-.847-.074-1.149-.222-.299-.155-.503-.365-.613-.63-.099-.273-.095-.58.012-.919.105-.331.28-.63.527-.896.254-.265.595-.475 1.023-.63.428-.155.955-.233 1.581-.233h1.799l-.29.919h-1.694c-.495 0-.852.077-1.072.232a1.05 1.05 0 0 0-.43.553c-.079.25-.037.45.125.598.162.147.43.22.8.22a2.37 2.37 0 0 0 1.025-.232 2.1 2.1 0 0 0 .832-.685l-.019.83a2.458 2.458 0 0 1-1.009.807c-.416.192-.9.288-1.448.288Zm5.203-.078 1.867-5.908h1.45l-1.866 5.908h-1.45Zm1.878-6.715 2.045-1.516h1.706l-2.498 1.516h-1.253Zm.566 8.386 1.445-2.445-.062.818c-.27 0-.474-.077-.61-.232-.127-.162-.148-.38-.061-.653a1.25 1.25 0 0 1 .476-.663c.24-.17.49-.255.753-.255.271 0 .469.085.593.255.124.17.143.39.057.663a1.765 1.765 0 0 1-.1.244 2.912 2.912 0 0 1-.172.287 4.359 4.359 0 0 1-.295.42l-1.085 1.56h-.94Zm10.359-1.593c-.503 0-.928-.111-1.276-.332-.34-.222-.564-.553-.672-.996-.097-.45-.038-1.018.179-1.704.219-.693.514-1.261.886-1.704.38-.442.808-.77 1.286-.984.48-.221.982-.332 1.508-.332.611 0 1.11.125 1.494.376.393.25.653.601.782 1.051.136.45.108.981-.085 1.593a4.189 4.189 0 0 1-.925 1.604c-.413.45-.895.8-1.446 1.051a4.077 4.077 0 0 1-1.731.377Zm-4.088 2.068 2.544-8.054h1.38l-.44 1.394-.542 1.571-.38 1.571-1.112 3.518h-1.45Zm4.3-3.252c.347 0 .68-.074.997-.221a2.653 2.653 0 0 0 1.419-1.626c.121-.384.144-.712.067-.985a1.047 1.047 0 0 0-.458-.642c-.224-.148-.51-.221-.858-.221-.349 0-.685.073-1.01.22a2.59 2.59 0 0 0-.864.643 2.604 2.604 0 0 0-.555.984c-.119.376-.141.705-.067.985.074.28.227.494.458.642.232.147.522.22.87.22Zm4.332 1.106 1.866-5.908h1.38l-.513 1.627-.012-.476c.311-.398.697-.7 1.156-.907.468-.207 1-.31 1.595-.31l-.416 1.316a.67.67 0 0 0-.167-.022 1.124 1.124 0 0 0-.159-.01 2.4 2.4 0 0 0-1.458.464c-.42.302-.726.756-.917 1.36l-.905 2.866h-1.45Zm7.646.078c-.688 0-1.25-.13-1.688-.388a1.915 1.915 0 0 1-.852-1.084c-.134-.457-.11-.977.075-1.56.186-.59.486-1.11.899-1.56a4.624 4.624 0 0 1 1.476-1.073 4.264 4.264 0 0 1 1.781-.387c.603 0 1.101.125 1.494.376.393.25.652.605.778 1.062.127.457.092.996-.104 1.615a2.303 2.303 0 0 1-.074.2c-.024.073-.05.143-.078.21h-5.163l.29-.919h4.397l-.66.288c.115-.34.136-.638.063-.896a1.048 1.048 0 0 0-.446-.608c-.216-.148-.498-.222-.846-.222a2.36 2.36 0 0 0-1.01.222 2.503 2.503 0 0 0-1.333 1.538l-.07.22c-.111.355-.125.668-.041.941.084.273.257.483.52.63.263.148.595.222.997.222.348 0 .678-.052.989-.155.311-.103.61-.266.896-.487l.508.852a4.21 4.21 0 0 1-1.282.72 4.603 4.603 0 0 1-1.516.242Zm7.148 0c-.65 0-1.19-.13-1.618-.388a1.928 1.928 0 0 1-.841-1.084c-.142-.457-.12-.977.063-1.56a3.98 3.98 0 0 1 .922-1.56 4.648 4.648 0 0 1 3.385-1.46c.603 0 1.096.118 1.478.354.392.229.636.568.734 1.018l-1.31.62a1.101 1.101 0 0 0-.488-.62 1.518 1.518 0 0 0-.796-.2 2.556 2.556 0 0 0-1.908.863 2.605 2.605 0 0 0-.555.985c-.121.384-.145.716-.07.996.075.273.233.483.473.63.24.148.537.222.893.222.31 0 .617-.067.921-.2.313-.132.606-.339.88-.619l.919.62a3.91 3.91 0 0 1-1.381 1.028 4.14 4.14 0 0 1-1.701.355Zm3.866-.078 1.866-5.908h1.45l-1.865 5.908h-1.45Zm2.905-6.881c-.27 0-.47-.081-.596-.244-.12-.162-.142-.357-.07-.586.074-.236.221-.431.44-.586a1.27 1.27 0 0 1 .75-.244c.27 0 .467.078.588.233.131.147.16.335.089.564-.077.243-.228.45-.451.62a1.237 1.237 0 0 1-.75.243Zm2.339 6.959c-.518 0-.997-.063-1.437-.188-.43-.133-.755-.292-.975-.476l.888-1.051c.225.17.514.31.865.42.352.11.721.166 1.108.166.457 0 .804-.059 1.042-.177.246-.118.4-.276.464-.476.051-.162.02-.284-.094-.365a1.157 1.157 0 0 0-.482-.199 10.51 10.51 0 0 0-.716-.122 9.633 9.633 0 0 1-.778-.143 2.35 2.35 0 0 1-.655-.277.994.994 0 0 1-.388-.498c-.074-.206-.058-.48.05-.819.118-.376.333-.7.643-.973.313-.28.694-.494 1.143-.642a4.742 4.742 0 0 1 1.523-.232c.418 0 .826.044 1.223.133.398.088.71.214.937.376l-.889 1.05a2.085 2.085 0 0 0-.785-.342 3.59 3.59 0 0 0-.85-.1c-.441 0-.79.063-1.046.188-.248.126-.403.284-.463.476-.056.177-.028.31.083.398.111.089.27.159.479.21.208.052.441.096.7.133.27.03.529.078.779.144.25.067.468.159.655.277.197.11.332.269.406.476.074.206.059.475-.046.807a2.08 2.08 0 0 1-.652.963c-.31.273-.699.486-1.166.641a5.162 5.162 0 0 1-1.566.222Zm7.898-.078.377-1.195v-.254l.66-2.091c.128-.406.1-.72-.086-.94-.183-.23-.533-.343-1.052-.343-.348 0-.708.051-1.081.154a3.697 3.697 0 0 0-.983.432l-.251-1.007c.41-.243.861-.424 1.355-.542a6.178 6.178 0 0 1 1.498-.188c.897 0 1.524.206 1.881.62.367.405.415 1.036.145 1.891l-1.094 3.463h-1.369Zm-1.974.078c-.464 0-.846-.074-1.148-.222-.299-.155-.503-.365-.613-.63-.099-.273-.095-.58.012-.919.105-.331.28-.63.526-.896.254-.265.595-.475 1.023-.63.428-.155.956-.233 1.582-.233h1.798l-.29.919h-1.694c-.495 0-.852.077-1.071.232-.217.148-.36.332-.43.553-.079.25-.037.45.125.598.162.147.429.22.8.22.356 0 .697-.077 1.025-.232.335-.154.612-.383.831-.685l-.018.83a2.46 2.46 0 0 1-1.009.807c-.417.192-.899.288-1.449.288Zm11.008 0c-.595 0-1.093-.126-1.494-.377a1.845 1.845 0 0 1-.778-1.062c-.129-.45-.096-.98.097-1.593a4.207 4.207 0 0 1 .909-1.593c.413-.45.895-.8 1.446-1.05a4.188 4.188 0 0 1 1.732-.377c.518 0 .947.11 1.287.332.342.214.564.542.664.984.1.443.04 1.01-.179 1.704-.216.686-.512 1.254-.886 1.704a3.674 3.674 0 0 1-1.278.996 3.582 3.582 0 0 1-1.52.332Zm.548-1.184c.348 0 .681-.074.998-.221a2.59 2.59 0 0 0 .864-.642 2.56 2.56 0 0 0 .566-.985c.122-.383.14-.712.056-.984a1.05 1.05 0 0 0-.458-.642c-.225-.148-.511-.221-.859-.221s-.684.073-1.009.22a2.739 2.739 0 0 0-.864.643 2.598 2.598 0 0 0-.555.984c-.119.376-.141.705-.067.985.081.28.234.494.458.642.232.147.522.22.87.22Zm1.53 1.106.441-1.394.554-1.57.38-1.572 1.16-3.673h1.439l-2.593 8.21h-1.381Zm6.177.078c-.688 0-1.251-.13-1.687-.388a1.916 1.916 0 0 1-.853-1.084c-.134-.457-.109-.977.075-1.56.187-.59.486-1.11.899-1.56a4.627 4.627 0 0 1 1.476-1.073 4.266 4.266 0 0 1 1.781-.387c.604 0 1.102.125 1.494.376.393.25.652.605.779 1.062.126.457.091.996-.105 1.615a2.133 2.133 0 0 1-.074.2 2.053 2.053 0 0 1-.078.21h-5.163l.29-.919h4.397l-.659.288c.115-.34.136-.638.062-.896a1.047 1.047 0 0 0-.445-.608c-.217-.148-.499-.222-.847-.222a2.37 2.37 0 0 0-1.01.222 2.498 2.498 0 0 0-1.332 1.538l-.07.22c-.112.355-.126.668-.042.941.084.273.257.483.52.63.263.148.595.222.997.222.349 0 .678-.052.989-.155a3.02 3.02 0 0 0 .896-.487l.509.852a4.22 4.22 0 0 1-1.283.72 4.603 4.603 0 0 1-1.516.242Zm11.353-.078.378-1.195-.001-.254.66-2.091c.128-.406.1-.72-.085-.94-.183-.23-.534-.343-1.052-.343a4.06 4.06 0 0 0-1.082.154 3.697 3.697 0 0 0-.983.432l-.251-1.007c.41-.243.861-.424 1.355-.542a6.184 6.184 0 0 1 1.498-.188c.897 0 1.524.206 1.881.62.367.405.415 1.036.145 1.891l-1.094 3.463h-1.369Zm-1.973.078c-.464 0-.847-.074-1.149-.222-.299-.155-.503-.365-.613-.63-.099-.273-.095-.58.012-.919.105-.331.28-.63.527-.896.254-.265.595-.475 1.023-.63.428-.155.955-.233 1.581-.233h1.799l-.29.919h-1.694c-.495 0-.852.077-1.071.232a1.038 1.038 0 0 0-.43.553c-.08.25-.038.45.124.598.162.147.429.22.8.22.356 0 .698-.077 1.025-.232.335-.154.612-.383.832-.685l-.019.83a2.454 2.454 0 0 1-1.009.807c-.416.192-.899.288-1.448.288Zm3.863 2.146a2.86 2.86 0 0 1-.738-.089 1.204 1.204 0 0 1-.546-.254l.743-1.029c.175.155.433.232.773.232.263 0 .494-.08.692-.243.196-.155.343-.387.441-.697l1.911-6.052h1.45l-1.901 6.019c-.205.649-.556 1.161-1.054 1.538-.492.383-1.083.575-1.771.575Zm4.303-9.105c-.271 0-.469-.081-.596-.244-.119-.162-.142-.357-.07-.586.075-.236.221-.431.44-.586.23-.163.48-.244.75-.244.271 0 .467.078.588.233.131.147.161.335.089.564a1.24 1.24 0 0 1-.451.62 1.237 1.237 0 0 1-.75.243Zm3.057 6.959c-.526 0-.961-.093-1.305-.277a1.352 1.352 0 0 1-.667-.863c-.101-.39-.058-.881.128-1.471l1.066-3.375h1.45l-1.006 3.187c-.168.53-.17.929-.006 1.194.173.258.492.388.956.388.341 0 .655-.067.945-.2.297-.132.557-.331.78-.597a2.74 2.74 0 0 0 .532-.985l.943-2.987h1.451l-1.867 5.908h-1.38l.503-1.593.09.487a3.34 3.34 0 0 1-1.196.885 3.57 3.57 0 0 1-1.417.299Zm7.897 0c-.596 0-1.094-.126-1.494-.377a1.84 1.84 0 0 1-.778-1.062c-.129-.45-.097-.98.097-1.593a4.181 4.181 0 0 1 .909-1.593c.413-.45.895-.8 1.446-1.05a4.187 4.187 0 0 1 1.731-.377c.519 0 .948.11 1.288.332.342.214.563.542.663.984.1.443.041 1.01-.178 1.704-.217.686-.512 1.254-.886 1.704a3.674 3.674 0 0 1-1.278.996c-.48.22-.986.332-1.52.332Zm.548-1.184c.348 0 .681-.074.998-.221a2.59 2.59 0 0 0 .864-.642c.258-.28.447-.609.566-.985.121-.383.14-.712.056-.984a1.047 1.047 0 0 0-.459-.642c-.224-.148-.51-.221-.858-.221a2.42 2.42 0 0 0-1.01.22 2.761 2.761 0 0 0-.864.643 2.61 2.61 0 0 0-.554.984c-.119.376-.142.705-.068.985.082.28.235.494.459.642.232.147.522.22.87.22Zm1.53 1.106.44-1.394.554-1.57.381-1.572 1.16-3.673h1.438l-2.593 8.21h-1.38Zm7.106 0 .378-1.195-.001-.254.66-2.091c.128-.406.1-.72-.085-.94-.184-.23-.534-.343-1.052-.343a4.06 4.06 0 0 0-1.082.154 3.697 3.697 0 0 0-.983.432l-.251-1.007c.41-.243.861-.424 1.355-.542a6.184 6.184 0 0 1 1.498-.188c.897 0 1.524.206 1.881.62.367.405.415 1.036.145 1.891l-1.094 3.463h-1.369Zm-1.973.078c-.464 0-.847-.074-1.149-.222-.299-.155-.503-.365-.613-.63-.099-.273-.095-.58.012-.919.105-.331.28-.63.527-.896.254-.265.595-.475 1.023-.63.428-.155.955-.233 1.581-.233h1.799l-.29.919h-1.694c-.495 0-.852.077-1.071.232a1.038 1.038 0 0 0-.43.553c-.08.25-.038.45.124.598.162.147.429.22.8.22.356 0 .698-.077 1.025-.232.335-.154.612-.383.832-.685l-.019.83a2.46 2.46 0 0 1-1.009.807c-.416.192-.899.288-1.448.288Zm7.117-2.645c.087-.273.209-.512.367-.719a3.32 3.32 0 0 1 .534-.553c.198-.162.401-.313.607-.453.215-.14.417-.277.605-.41a3.26 3.26 0 0 0 .493-.42c.139-.148.238-.314.296-.498.098-.31.046-.56-.156-.752-.203-.192-.525-.288-.965-.288-.426 0-.82.074-1.184.221a3.281 3.281 0 0 0-.977.63l-.905-.696c.458-.42.987-.749 1.587-.985a5.252 5.252 0 0 1 1.984-.365c.564 0 1.034.081 1.408.244.376.154.637.383.781.686.147.295.152.656.017 1.084a2.485 2.485 0 0 1-.395.774 3.21 3.21 0 0 1-.557.587 8.655 8.655 0 0 1-.622.464c-.215.14-.421.28-.62.42-.192.14-.359.292-.503.454a1.566 1.566 0 0 0-.321.575h-1.474Zm-.092 2.645c-.271 0-.469-.085-.593-.255-.116-.17-.137-.372-.063-.608a1.18 1.18 0 0 1 .444-.598 1.25 1.25 0 0 1 .753-.254c.271 0 .465.085.581.254.119.163.141.362.067.598a1.223 1.223 0 0 1-.448.608c-.223.17-.471.255-.741.255Z" fill="#D7F9FF"/></g><path d="M16.056 46.217c3.807-12.053 17.14-21.823 29.78-21.823h134.638c9.995 0 15.658 7.727 12.647 17.258l-8.335 26.389H32.049c-12.64 0-19.8-9.77-15.993-21.824Z" stroke="url(#paint0_linear_2341_741)" stroke-width=".928"/></g><g filter="url(#filter2_d_2341_741)"><path d="M102.253 180.285c-7.087-9.586-2.32-25.128 10.646-34.714 12.967-9.586 29.223-9.586 36.31 0 7.087 9.586 2.32 25.128-10.646 34.714-12.967 9.586-29.223 9.586-36.31 0Zm111.555-.002c-7.087-9.586-2.32-25.128 10.646-34.714 12.966-9.586 29.223-9.586 36.31 0 7.086 9.586 2.32 25.128-10.647 34.714-12.966 9.586-29.222 9.586-36.309 0Zm-65.878-15.941h62.195" stroke="#2BE3FC" stroke-width="11.997"/><path d="M329.246 110.964c.537-4.236-2.906-16.627-49.771-16.627H120.514c-17.683 0-51.425 6.747-61.745 46.956L42.65 193.848c-5.835 19.026-1.565 35.675 27.287 37.694h167.458l-14.334 46.74 80.445-63.58 11.941-38.937" stroke="url(#paint1_linear_2341_741)" stroke-width="17.052" stroke-linecap="round" stroke-linejoin="round"/><path d="m329.895 110.81-62.41 42.666" stroke="url(#paint2_linear_2341_741)" stroke-width="15.835" stroke-linecap="round"/></g><defs><linearGradient id="paint0_linear_2341_741" x1="110.901" y1="23.951" x2="110.901" y2="68.483" gradientUnits="userSpaceOnUse"><stop stop-color="#9BE4F1"/><stop offset="1" stop-color="#2BDEFD"/></linearGradient><linearGradient id="paint1_linear_2341_741" x1="107.035" y1="89.556" x2="325.128" y2="273.578" gradientUnits="userSpaceOnUse"><stop stop-color="#83F0FF"/><stop offset=".314" stop-color="#2BE3FC"/><stop offset="1" stop-color="#39B8FF"/></linearGradient><linearGradient id="paint2_linear_2341_741" x1="309.545" y1="117.172" x2="254.518" y2="151.516" gradientUnits="userSpaceOnUse"><stop offset=".021" stop-color="#31D0FD"/><stop offset="1" stop-color="#2BE3FC"/></linearGradient><filter id="filter0_d_2341_741" x="-5.513" y=".879" width="266.762" height="120.676" filterUnits="userSpaceOnUse" color-interpolation-filters="sRGB"><feFlood flood-opacity="0" result="BackgroundImageFix"/><feColorMatrix in="SourceAlpha" values="0 0 0 0 0 0 0 0 0 0 0 0 0 0 0 0 0 0 127 0" result="hardAlpha"/><feOffset dx="24" dy="15"/><feGaussianBlur stdDeviation="19.036"/><feColorMatrix values="0 0 0 0 0.0745098 0 0 0 0 0.168627 0 0 0 0 0.407843 0 0 0 1 0"/><feBlend in2="BackgroundImageFix" result="effect1_dropShadow_2341_741"/><feBlend in="SourceGraphic" in2="effect1_dropShadow_2341_741" result="shape"/></filter><filter id="filter1_d_2341_741" x="35.972" y="41.967" width="135.056" height="12.621" filterUnits="userSpaceOnUse" color-interpolation-filters="sRGB"><feFlood flood-opacity="0" result="BackgroundImageFix"/><feColorMatrix in="SourceAlpha" values="0 0 0 0 0 0 0 0 0 0 0 0 0 0 0 0 0 0 127 0" result="hardAlpha"/><feOffset dy=".928"/><feGaussianBlur stdDeviation=".464"/><feComposite in2="hardAlpha" operator="out"/><feColorMatrix values="0 0 0 0 0.0196078 0 0 0 0 0.0980392 0 0 0 0 0.2 0 0 0 0.25 0"/><feBlend in2="BackgroundImageFix" result="effect1_dropShadow_2341_741"/><feBlend in="SourceGraphic" in2="effect1_dropShadow_2341_741" result="shape"/></filter><filter id="filter2_d_2341_741" x="16.438" y="63.114" width="382.814" height="276.393" filterUnits="userSpaceOnUse" color-interpolation-filters="sRGB"><feFlood flood-opacity="0" result="BackgroundImageFix"/><feColorMatrix in="SourceAlpha" values="0 0 0 0 0 0 0 0 0 0 0 0 0 0 0 0 0 0 127 0" result="hardAlpha"/><feOffset dx="23" dy="15"/><feGaussianBlur stdDeviation="19.036"/><feColorMatrix values="0 0 0 0 0.0748611 0 0 0 0 0.168233 0 0 0 0 0.408333 0 0 0 1 0"/><feBlend in2="BackgroundImageFix" result="effect1_dropShadow_2341_741"/><feBlend in="SourceGraphic" in2="effect1_dropShadow_2341_741" result="shape"/></filter></defs></svg>