<svg xmlns="http://www.w3.org/2000/svg" width="561" height="409" fill="none"><path stroke="#177487" stroke-width=".986" d="M442.706 2.493H.692v351.735l55.422 43.279h386.592z"/><path fill="#2BDEFD" d="M519.992 2.5h-.41L518.337 6h.395l.325-.945h1.46l.325.945h.395zm-.825 2.225.615-1.785h.01l.61 1.785zm-1.207.725v-2.4l-.55-.55h-1.58l-.55.55v2.4l.55.55h1.58zm-1.96.21-.34-.335v-2.15l.34-.335h1.24l.34.335v2.15l-.34.335zm-1.121-3.16h-.395l-1.04 3.045h-.01l-1.04-3.045h-.395l1.235 3.5h.41zm-3.256 3.04v-.32h-.375v.195l-.24.245h-1.2l-.25-.255V4.62l.25-.245h1.345l.46-.46V2.96l-.46-.46h-1.47l-.46.46v.325h.37v-.2l.25-.245h1.145l.25.245v.705l-.25.245h-1.345l-.46.46V5.53l.47.47h1.51zm-3.012-.21-1.83-1.81v-.435l.25-.245h.97l.25.245v.265h.38v-.39l-.46-.46h-1.31l-.46.46v.67l1.83 1.81v.22h-1.85V6h2.23zm-2.879-2.83h-.38v1.585h-.815l-.905-1.585h-.41l.995 1.745L503.147 6h.42l.965-1.575h.82V6h.38zm-2.956 2.83-1.83-1.81v-.435l.25-.245h.97l.25.245v.265h.38v-.39l-.46-.46h-1.31l-.46.46v.67l1.83 1.81v.22h-1.85V6h2.23zm-2.729.21v-.39h-.38v.265l-.25.245h-1.06l-.25-.245V4.65l.24-.24h1v-.34h-1l-.24-.24v-.745l.25-.245h1.03l.25.245v.265h.38v-.39l-.46-.46h-1.37l-.46.46v.98l.305.3-.305.305v.995l.46.46h1.4zm-4.136-.21-1.83-1.81v-.435l.25-.245h.97l.25.245v.265h.38v-.39l-.46-.46h-1.31l-.46.46v.67l1.83 1.81v.22h-1.85V6h2.23zm-2.879-2.83h-1.965l-.46.46v.97l.24.24-.395.395v.945l.49.49h2.09zm-1.805 1.58-.25-.25v-.755l.25-.245h1.435v1.25zm-.115 1.59-.29-.285v-.7l.29-.285h1.55v1.27zM489.8 2.5h-2.02l-.55.55v2.4l.55.55h2.02zm-1.85 3.16-.34-.335v-2.15l.34-.335h1.47v2.82zm-1.471-3.16h-2.26v.34h1.88v1.23h-1.735v.34h1.735v1.25h-1.88V6h2.26zm-2.91 0h-2.21v.34h1.83V4.1h-1.59v.34h1.59V6h.38zm-2.759 0h-2.02l-.55.55v2.4l.55.55h2.02zm-1.85 3.16-.34-.335v-2.15l.34-.335h1.47v2.82zm49.993 6.905h-1.46v.33h1.46zm-2.007.765-1.83-1.81v-.435l.25-.245h.97l.25.245v.265h.38v-.39l-.46-.46h-1.31l-.46.46v.67l1.83 1.81v.22h-1.85V14h2.23zm-2.729.21v-.39h-.38v.265l-.25.245h-1.06l-.25-.245v-.765l.24-.24h1v-.34h-1l-.24-.24v-.745l.25-.245h1.03l.25.245v.265h.38v-.39l-.46-.46h-1.37l-.46.46v.98l.305.3-.305.305v.995l.46.46h1.4zm-2.832.315v-.22l-.145-.145h-.22l-.145.145v.22l.145.145h.22zm-.997-.315v-.39h-.38v.265l-.25.245h-1.05l-.25-.245v-1l.25-.245h1.63V10.5h-2.19v.335h1.82v.995h-1.425l-.465.465v1.245l.46.46h1.39zm-2.935 0v-1.03l-.315-.315.265-.265v-.97l-.46-.46h-1.4l-.46.46v.97l.265.265-.315.315v1.03l.46.46h1.5zm-1.74-1.485-.25-.245v-.725l.25-.245h1.06l.25.245v.725l-.25.245zm-.05 1.605-.25-.245v-.785l.25-.245h1.16l.25.245v.785l-.25.245zm-1.281-.12v-1.03l-.315-.315.265-.265v-.97l-.46-.46h-1.4l-.46.46v.97l.265.265-.315.315v1.03l.46.46h1.5zm-1.74-1.485-.25-.245v-.725l.25-.245h1.06l.25.245v.725l-.25.245zm-.05 1.605-.25-.245v-.785l.25-.245h1.16l.25.245v.785l-.25.245zm-1.942-2.77.785.405v-.35l-.815-.445h-.35V14h.38zm-1.157 2.65v-2.58l-.46-.46h-1.4l-.46.46v.39h.38v-.265l.25-.245h1.06l.25.245v1.18l-.405-.405h-1.095l-.46.46v1.22l.46.46h1.42zm-1.71.12-.25-.245v-.97l.25-.245h.825l.505.505v.71l-.25.245zm-2.838-2.63v-.19h1.81v-.34h-2.19v.555l1.37 2.945h.4zm-1.565-.14.785.405v-.35l-.815-.445H503V14h.38zm-1.157 2.65v-2.58l-.46-.46h-1.4l-.46.46v.39h.38v-.265l.25-.245h1.06l.25.245v1.18l-.405-.405h-1.095l-.46.46v1.22l.46.46h1.42zm-1.71.12-.25-.245v-.97l.25-.245h.825l.505.505v.71l-.25.245zm-1.179-.12v-.39h-.38v.265l-.25.245h-1.06l-.25-.245v-.765l.24-.24h1v-.34h-1l-.24-.24v-.745l.25-.245h1.03l.25.245v.265h.38v-.39l-.46-.46h-1.37l-.46.46v.98l.305.3-.305.305v.995l.46.46h1.4zm-2.895 0v-.39h-.38v.265l-.25.245h-1.06l-.25-.245v-.765l.24-.24h1v-.34h-1l-.24-.24v-.745l.25-.245h1.03l.25.245v.265h.38v-.39l-.46-.46h-1.37l-.46.46v.98l.305.3-.305.305v.995l.46.46h1.4zm-2.971 0v-1.03l-.315-.315.265-.265v-.97l-.46-.46h-1.4l-.46.46v.97l.265.265-.315.315v1.03l.46.46h1.5zm-1.74-1.485-.25-.245v-.725l.25-.245h1.06l.25.245v.725l-.25.245zm-.05 1.605-.25-.245v-.785l.25-.245h1.16l.25.245v.785l-.25.245zm-1.306-.16V11l-.5-.5h-1.44l-.5.5v2.5l.5.5h1.44zm-1.77.16-.29-.285v-2.25l.29-.285h1.1l.29.285v2.25l-.29.285zm-1.369-.16V11l-.5-.5h-1.44l-.5.5v2.5l.5.5h1.44zm-1.77.16-.29-.285v-2.25l.29-.285h1.1l.29.285v2.25l-.29.285zm-2.865-.375h1.72v-.59l-1.495-2.195h-.605v2.445h-.425v.34h.425V14h.38zm0-.33V10.82h.03l1.32 1.935v.2zm-1.199.375-1.83-1.81v-.435l.25-.245h.97l.25.245v.265h.38v-.39l-.46-.46h-1.31l-.46.46v.67l1.83 1.81v.22h-1.85V14h2.23zm-2.944.67h.06l.145-.145v-.22l-.145-.145h-.22l-.145.145V14l.25.62h.205zm47.324 6.565h-1.46v.33h1.46zm-3.582.72h1.72v-.59l-1.495-2.195h-.605v2.445h-.425v.34h.425V22h.38zm0-.33V18.82h.03l1.32 1.935v.2zm-1.278.585v-2.58l-.46-.46h-1.4l-.46.46v.39h.38v-.265l.25-.245h1.06l.25.245v1.18l-.405-.405h-1.095l-.46.46v1.22l.46.46h1.42zm-1.71.12-.25-.245v-.97l.25-.245h.825l.505.505v.71l-.25.245zm-1.115.195v-.22l-.145-.145h-.22l-.145.145v.22l.145.145h.22zm-1.047-.315v-2.58l-.46-.46h-1.4l-.46.46v.39h.38v-.265l.25-.245h1.06l.25.245v1.18l-.405-.405h-1.095l-.46.46v1.22l.46.46h1.42zm-1.71.12-.25-.245v-.97l.25-.245h.825l.505.505v.71l-.25.245zm-1.178-.12v-.39h-.38v.265l-.25.245h-1.06l-.25-.245v-.765l.24-.24h1v-.34h-1l-.24-.24v-.745l.25-.245h1.03l.25.245v.265h.38v-.39l-.46-.46h-1.37l-.46.46v.98l.305.3-.305.305v.995l.46.46h1.4zm-2.916-.21-1.83-1.81v-.435l.25-.245h.97l.25.245v.265h.38v-.39l-.46-.46h-1.31l-.46.46v.67l1.83 1.81v.22h-1.85V22h2.23zm-2.729.21v-.39h-.38v.265l-.25.245h-1.06l-.25-.245v-.765l.24-.24h1v-.34h-1l-.24-.24v-.745l.25-.245h1.03l.25.245v.265h.38v-.39l-.46-.46h-1.37l-.46.46v.98l.305.3-.305.305v.995l.46.46h1.4zm-2.895 0v-.39h-.38v.265l-.25.245h-1.06l-.25-.245v-.765l.24-.24h1v-.34h-1l-.24-.24v-.745l.25-.245h1.03l.25.245v.265h.38v-.39l-.46-.46h-1.37l-.46.46v.98l.305.3-.305.305v.995l.46.46h1.4zm-3.631-2.65.785.405v-.35l-.815-.445h-.35V22h.38zm-1.182 2.65v-.39h-.38v.265l-.25.245h-1.03l-.25-.245v-1.11l.355.355h1.145l.46-.46v-1.24l-.46-.46h-1.42l-.46.46v2.58l.46.46h1.37zm-1.455-1.22-.455-.455v-.78l.25-.245h1.08l.25.245v.99l-.25.245zm-1.533 1.18V19l-.5-.5h-1.44l-.5.5v2.5l.5.5h1.44zm-1.77.16-.29-.285v-2.25l.29-.285h1.1l.29.285v2.25l-.29.285zm-1.269-.12v-.39h-.38v.265l-.25.245h-1.06l-.25-.245v-.765l.24-.24h1v-.34h-1l-.24-.24v-.745l.25-.245h1.03l.25.245v.265h.38v-.39l-.46-.46h-1.37l-.46.46v.98l.305.3-.305.305v.995l.46.46h1.4zm-3.021 0v-.39h-.38v.265l-.25.245h-1.03l-.25-.245v-1.11l.355.355h1.145l.46-.46v-1.24l-.46-.46h-1.42l-.46.46v2.58l.46.46h1.37zm-1.455-1.22-.455-.455v-.78l.25-.245h1.08l.25.245v.99l-.25.245zm-3.027.965h1.72v-.59l-1.495-2.195h-.605v2.445h-.425v.34h.425V22h.38zm0-.33V18.82h.03l1.32 1.935v.2zm-1.179.585v-.39h-.38v.265l-.25.245h-1.06l-.25-.245v-.765l.24-.24h1v-.34h-1l-.24-.24v-.745l.25-.245h1.03l.25.245v.265h.38v-.39l-.46-.46h-1.37l-.46.46v.98l.305.3-.305.305v.995l.46.46h1.4zm-4.555-2.51v-.19h1.81v-.34h-2.19v.555l1.37 2.945h.4zm-.906 2.51v-1.03l-.315-.315.265-.265v-.97l-.46-.46h-1.4l-.46.46v.97l.265.265-.315.315v1.03l.46.46h1.5zm-1.74-1.485-.25-.245v-.725l.25-.245h1.06l.25.245v.725l-.25.245zm-.05 1.605-.25-.245v-.785l.25-.245h1.16l.25.245v.785l-.25.245z"/><g clip-path="url(#a)"><path fill="#11161B" d="M761.478 35H34.302a6.41 6.41 0 0 0-6.412 6.412v407.176A6.41 6.41 0 0 0 34.302 455h727.176a6.41 6.41 0 0 0 6.412-6.412V41.412A6.41 6.41 0 0 0 761.478 35"/><rect width="298" height="12" x="246.89" y="41" fill="#343846" opacity=".2" rx="3"/><path fill="#36393D" d="M391.929 44.303V50h-.69v-5.697zm3.557 4.77v-3.086h.69V50h-.657zm.13-.846.285-.007q0 .4-.085.742a1.6 1.6 0 0 1-.267.585 1.27 1.27 0 0 1-.486.39q-.3.137-.731.137-.293 0-.537-.085a1.1 1.1 0 0 1-.416-.264 1.2 1.2 0 0 1-.271-.463 2.3 2.3 0 0 1-.092-.686v-2.59h.686v2.597q0 .27.059.449a.75.75 0 0 0 .167.278.6.6 0 0 0 .237.141q.134.04.275.04.438 0 .693-.166a.95.95 0 0 0 .368-.456q.115-.29.115-.642m2.292-1.61V50h-.686v-4.013h.667zm1.253-.652-.003.637a1.738 1.738 0 0 0-.334-.03q-.237 0-.419.075a.9.9 0 0 0-.308.208 1 1 0 0 0-.2.319 1.5 1.5 0 0 0-.093.4l-.193.112q0-.364.071-.683.073-.318.226-.564.152-.248.386-.385a1.08 1.08 0 0 1 .867-.09m1.38.022V50h-.69v-4.013zm-.742-1.065q0-.166.101-.281.103-.115.304-.115.196 0 .3.114.108.115.108.282a.39.39 0 0 1-.108.275q-.103.111-.3.111-.2 0-.304-.111a.4.4 0 0 1-.101-.275"/><circle cx="45.39" cy="46.5" r="2.5" fill="#36393D"/><circle cx="52.39" cy="46.5" r="2.5" fill="#36393D" opacity=".6"/><circle cx="60.39" cy="46.5" r="2.5" fill="#36393D" opacity=".3"/><path fill="#36393D" d="M539.464 44.259a3.7 3.7 0 0 0-1.392.264 3.2 3.2 0 0 0-1.122.75c-.945.981-.957 2.438-.026 3.428 1.229 1.31 3.471 1.392 4.825.242.432-.366.733-.83.867-1.336a2.34 2.34 0 0 0-.107-1.521c-.1-.24-.457-.311-.669-.131-.106.09-.149.223-.101.342.191.444.196.93.014 1.378s-.54.828-1.014 1.077a2.77 2.77 0 0 1-2.573-.008 2.3 2.3 0 0 1-.76-.648 1.86 1.86 0 0 1-.354-.864 1.77 1.77 0 0 1 .122-.91 2.04 2.04 0 0 1 .574-.775c.475-.404 1.095-.596 1.716-.594l-.001.733c0 .306.435.462.689.245l1.028-.872a.31.31 0 0 0 0-.485l-1.026-.871c-.254-.216-.692-.063-.692.243z"/><path stroke="#36393D" stroke-linecap="round" stroke-linejoin="round" d="m101.89 49 3-3.158-2.7-2.842"/><path stroke="#36393D" stroke-linecap="round" stroke-linejoin="round" d="m87.89 44-3 3.158L87.59 50" opacity=".5"/><g clip-path="url(#b)"><rect width="500.539" height="328" x="43.661" y="66" fill="#050C14" rx="9.422"/><path stroke="#4297D5" stroke-width="1.468" d="M367.922 229.116c0 41.515-33.655 75.17-75.17 75.17s-75.17-33.655-75.17-75.17 33.655-75.169 75.17-75.169 75.17 33.654 75.17 75.169Z" opacity=".4"/><path stroke="#1A91FF" stroke-width="1.101" d="M396 229.117c0 57.023-46.227 103.249-103.25 103.249S189.501 286.14 189.501 229.117c0-57.024 46.226-103.25 103.249-103.25S396 172.093 396 229.117Z" opacity=".3"/><path stroke="#8AEBFF" stroke-width=".734" d="M425.38 229.116c0 73.248-59.379 132.627-132.627 132.627-73.247 0-132.626-59.379-132.626-132.627 0-73.247 59.379-132.626 132.626-132.626S425.38 155.869 425.38 229.116Z" opacity=".3"/><path stroke="#2F7988" stroke-width=".589" d="M481.485 229.117c0 104.234-84.499 188.732-188.733 188.732S104.02 333.351 104.02 229.117 188.518 40.384 292.752 40.384s188.733 84.499 188.733 188.733Z"/><g filter="url(#c)"><path fill="#1F385E" d="M450.321-55.939c0 91.713-74.348 166.061-166.061 166.061S118.199 35.774 118.199-55.938C118.199-147.653 192.547-222 284.26-222s166.061 74.348 166.061 166.061"/></g><g filter="url(#d)"><path fill="#274B90" d="M401.199 17.5c0 59.37-48.129 107.5-107.5 107.5-59.37 0-107.5-48.13-107.5-107.5S234.329-90 293.699-90c59.371 0 107.5 48.13 107.5 107.5"/></g><g filter="url(#e)"><path fill="url(#f)" d="M378.484 217.063a5.99 5.99 0 0 0-5.993 5.993v23.765l-27.31 29.046.102-16.278a5.646 5.646 0 0 0-5.644-5.645H234.672c-11.894 0-21.209-8.646-21.209-19.69v-40.598c0-5.918 2.067-19.69 21.181-19.69l110.696.502c3.185 0 6.347.228 9.663.696 4.406.622 8.464 1.456 11.558 3.619l-24.303 23.846c-2.711-3.722-6.637-6.518-11.169-7.757-12.18-3.322-23.555 5.017-25.404 16.289h-30.706a22 22 0 0 0-.423-1.923c-1.895-6.941-7.431-12.477-14.371-14.366-15.153-4.132-29.068 9.788-24.93 24.942 1.894 6.94 7.431 12.476 14.371 14.371 11.581 3.162 22.425-4.223 25.062-14.64h31.413c.023.092.04.177.063.269 1.895 6.94 7.431 12.476 14.372 14.371 13.001 3.55 25.078-6.192 25.643-18.601l26.129-25.637q.008.042.006.085l6.141-6.141c2.511-2.511 2.797-6.472.708-9.349-6.529-8.995-17.357-10.525-22.476-11.244a80 80 0 0 0-11.307-.81l-110.708-.502c-10.296 0-18.874 3.241-24.804 9.371-5.491 5.673-8.39 13.39-8.39 22.305v40.603c0 8.533 3.441 16.512 9.685 22.47 6.216 5.936 14.566 9.201 23.509 9.201h98.523v25.056a5.99 5.99 0 0 0 5.993 5.992 5.97 5.97 0 0 0 4.366-1.889l39.296-41.79a6 6 0 0 0 1.627-4.103v-26.141a5.993 5.993 0 0 0-5.993-5.998m-126.524 8.424c-3.869-1.056-6.957-4.144-8.013-8.013-2.306-8.453 5.451-16.215 13.904-13.909 3.869 1.055 6.957 4.143 8.013 8.013 2.311 8.458-5.451 16.22-13.904 13.909m70.91 0c-3.87-1.056-6.957-4.144-8.013-8.013-2.306-8.453 5.45-16.215 13.903-13.909 3.87 1.055 6.958 4.143 8.013 8.013 2.312 8.458-5.45 16.22-13.903 13.909"/></g></g></g><defs><filter id="c" width="917.458" height="917.458" x="-174.469" y="-514.668" color-interpolation-filters="sRGB" filterUnits="userSpaceOnUse"><feFlood flood-opacity="0" result="BackgroundImageFix"/><feBlend in="SourceGraphic" in2="BackgroundImageFix" result="shape"/><feGaussianBlur result="effect1_foregroundBlur_148_5941" stdDeviation="146.334"/></filter><filter id="d" width="437.592" height="437.592" x="74.903" y="-201.296" color-interpolation-filters="sRGB" filterUnits="userSpaceOnUse"><feFlood flood-opacity="0" result="BackgroundImageFix"/><feBlend in="SourceGraphic" in2="BackgroundImageFix" result="shape"/><feGaussianBlur result="effect1_foregroundBlur_148_5941" stdDeviation="55.648"/></filter><filter id="e" width="272.399" height="224.399" x="156.778" y="119.641" color-interpolation-filters="sRGB" filterUnits="userSpaceOnUse"><feFlood flood-opacity="0" result="BackgroundImageFix"/><feColorMatrix in="SourceAlpha" result="hardAlpha" values="0 0 0 0 0 0 0 0 0 0 0 0 0 0 0 0 0 0 127 0"/><feOffset dy="2.355"/><feGaussianBlur stdDeviation="22.35"/><feColorMatrix values="0 0 0 0 0.262267 0 0 0 0 0.506593 0 0 0 0 0.732125 0 0 0 1 0"/><feBlend in2="BackgroundImageFix" result="effect1_dropShadow_148_5941"/><feBlend in="SourceGraphic" in2="effect1_dropShadow_148_5941" result="shape"/></filter><clipPath id="a"><rect width="532" height="374" x="28.199" y="35" fill="#fff" rx="6"/></clipPath><clipPath id="b"><rect width="500.539" height="328" x="43.661" y="66" fill="#fff" rx="9.422"/></clipPath><linearGradient id="f" x1="292.977" x2="292.977" y1="161.986" y2="296.984" gradientUnits="userSpaceOnUse"><stop stop-color="#8EECFF"/><stop offset=".528" stop-color="#2BD9FC"/></linearGradient></defs></svg>