<svg xmlns="http://www.w3.org/2000/svg" width="250" height="250" fill="none"><path fill="#2BDEFD" d="m82.48 205.001-.607-1.48.584-.139.596 1.458zm-2.086 1.188.153-.272q.271-.485.609-.801a2.1 2.1 0 0 1 .715-.457q.38-.141.778-.104.396.036.789.257.381.214.62.535.237.32.32.72.079.398-.01.854a3.2 3.2 0 0 1-.36.94l-.153.272a3.2 3.2 0 0 1-.611.796q-.343.312-.725.452a1.75 1.75 0 0 1-.779.107 1.95 1.95 0 0 1-.78-.252 2 2 0 0 1-.632-.542 1.7 1.7 0 0 1-.315-.721 2.1 2.1 0 0 1 .019-.849q.09-.45.362-.935m.717.045-.156.278a3 3 0 0 0-.302.724q-.09.339-.051.625.038.285.195.51.157.224.436.381a1.16 1.16 0 0 0 1.074.066q.267-.114.515-.363a3 3 0 0 0 .465-.633l.156-.278q.218-.387.302-.732a1.7 1.7 0 0 0 .044-.633 1.2 1.2 0 0 0-.201-.513 1.25 1.25 0 0 0-.42-.372 1.3 1.3 0 0 0-.552-.174 1.1 1.1 0 0 0-.535.1 1.6 1.6 0 0 0-.508.372q-.244.255-.462.642m-16.156-7.676-.499-.418 2.146-2.559q.357-.426.784-.55t.86-.003q.43.121.796.428.386.322.579.724.189.402.134.838-.06.433-.416.859l-2.145 2.558-.496-.416 2.145-2.558q.249-.297.3-.58a.9.9 0 0 0-.064-.54 1.4 1.4 0 0 0-.379-.477 1.4 1.4 0 0 0-.535-.29.9.9 0 0 0-.546.029q-.27.1-.519.397zm-11.147-11.373 4.502-1.621.427.514-4.997 1.71-.275-.331zm2.582-3.929-2.411 4.135-.33.287-.275-.33 2.586-4.608zm-1.35 1.233.411-.342 1.773 2.131-.411.343zm-8.268-13.904.461-.265 1.23 2.139-.461.265zm-2.651 4.222 4.278-2.46.326.568-4.278 2.459zm-6.991-13.835 4.589-1.817.24.608-4.588 1.817-.24-.608Zm.782-13.115.23 1.004-.52.112-.229-.997q-.118-.516-.412-.81a1.4 1.4 0 0 0-.726-.376 2.3 2.3 0 0 0-.959.036l-.294.067a2.6 2.6 0 0 0-.71.268q-.301.173-.479.416-.18.243-.232.547-.054.3.029.657l.249 1.084-.522.12-.25-1.084a2.3 2.3 0 0 1-.039-.898q.066-.426.3-.775.228-.351.613-.6.381-.247.903-.367l.288-.066q.521-.12.976-.064a1.98 1.98 0 0 1 1.422.859q.246.365.362.867m-4.658 1.768 4.81-1.104.147.637-4.81 1.104zm-2.537-17.916 4.57 1.423.03.667-5.017-1.65-.02-.43zm4.43-1.577-4.417 1.844-.437.031-.02-.43 4.842-2.116zm-1.821.169.535-.025.129 2.77-.535.025zm2.12-14.397-.136 1.022-.527-.077.136-1.015q.069-.523-.102-.903a1.4 1.4 0 0 0-.549-.606 2.3 2.3 0 0 0-.91-.303l-.3-.04a2.6 2.6 0 0 0-.758.002 1.5 1.5 0 0 0-.594.222q-.255.164-.41.431-.154.263-.203.626l-.147 1.102-.53-.071.146-1.102q.065-.48.278-.856.21-.375.552-.62.337-.25.784-.347a2.8 2.8 0 0 1 .975-.027l.292.038q.532.072.937.283a1.96 1.96 0 0 1 1.03 1.303q.105.428.036.938m-4.982.024 4.892.652-.086.648-4.892-.652zm8.06-17.658.508.16-.784 2.493-.508-.16zm-4.944 1.046 4.708 1.481-.197.624-4.708-1.48zm2.664-1.4.508.16-.68 2.162-.508-.159zm-1.93-.934.51.16-.773 2.461-.511-.16zm10.76-22.345 2.84 3.852-.37.556-3.066-4.3.238-.359zm4.504 1.351-4.652-1.128-.37-.234.239-.358 5.155 1.162zm-1.568-.941.446.297-1.536 2.308-.446-.297zm10.962-11.886.386.366-1.698 1.79-.386-.366zm-4.804-1.334 3.58 3.397-.45.474-3.58-3.397zM67.326 49.69l.522-.388 1.993 2.68q.331.445.353.89.023.443-.196.838a2.1 2.1 0 0 1-.6.675 2.2 2.2 0 0 1-.839.395q-.435.091-.845-.064-.409-.157-.74-.603l-1.993-2.68.52-.385 1.992 2.679q.231.31.495.426a.9.9 0 0 0 .54.063 1.4 1.4 0 0 0 .552-.258q.275-.205.406-.454a.9.9 0 0 0 .098-.538q-.035-.286-.266-.596zm11.815-7.806 1.464-.726q.498-.246.916-.265.421-.02.748.19.33.203.542.635.15.303.152.617a1.3 1.3 0 0 1-.142.6q-.141.285-.418.53l-.133.144-1.376.682-.242-.473 1.039-.515q.315-.157.47-.37a.86.86 0 0 0 .168-.458.93.93 0 0 0-.1-.468 1.06 1.06 0 0 0-.322-.397.75.75 0 0 0-.462-.138q-.266 0-.602.166l-.878.436 1.955 3.941-.587.29zm4.777 3.14-2.07-1.47.61-.306 2.067 1.43.018.036zM96.555 34.97l-.321 4.774-.641.186.437-5.264.413-.12zm2.564 3.94-2.821-3.866-.131-.417.413-.12 3.184 4.217zm-.588-1.731.148.514-2.663.77-.15-.514zm32.933-4.249.769-.864-.989-.403.208-.49.982.473.084-1.163.512.05-.149 1.177 1.042-.276.105.532-1.066.205.575.98-.449.272-.529-1.032-.703.888zm33.634 11.006.65 1.462-.58.156-.637-1.44zm2.052-1.247-.145.276a3.3 3.3 0 0 1-.586.818 2.2 2.2 0 0 1-.702.478q-.375.151-.775.126a2 2 0 0 1-.795-.234 1.9 1.9 0 0 1-.636-.517 1.8 1.8 0 0 1-.34-.71 2.2 2.2 0 0 1-.015-.855q.076-.457.334-.95l.145-.276q.258-.493.587-.813.334-.323.712-.473a1.76 1.76 0 0 1 .775-.129q.4.026.787.23.4.209.648.523.25.315.335.712.088.393.006.849a3.2 3.2 0 0 1-.335.945m-.718-.024.148-.282q.204-.39.281-.733.08-.342.033-.626-.045-.285-.21-.504a1.3 1.3 0 0 0-.446-.368 1.25 1.25 0 0 0-.541-.15 1.2 1.2 0 0 0-.535.113 1.7 1.7 0 0 0-.504.379q-.242.256-.447.646l-.148.282a3 3 0 0 0-.281.74q-.074.345-.026.634a1.2 1.2 0 0 0 .216.507q.164.22.431.36.282.15.557.159.274.01.531-.116.261-.127.497-.386a3.2 3.2 0 0 0 .444-.655m16.363 7.207.51.404-2.071 2.618q-.344.436-.768.573-.423.135-.86.028a2.1 2.1 0 0 1-.808-.405 2.2 2.2 0 0 1-.599-.707 1.5 1.5 0 0 1-.157-.834q.045-.435.39-.87l2.071-2.62.508.402-2.071 2.619q-.24.303-.284.588a.9.9 0 0 0 .08.538q.126.256.392.466.269.212.544.275a.9.9 0 0 0 .545-.045q.267-.109.507-.411zm11.465 11.047-4.455 1.749-.441-.5 4.946-1.854.284.323zm-2.468 4.002 2.291-4.203.321-.297.285.323-2.454 4.68zm1.314-1.272-.402.354-1.834-2.08.402-.354zm8.674 13.665-.454.278-1.291-2.103.454-.279zm2.529-4.297-4.206 2.582-.342-.558 4.206-2.581zm7.376 13.625-4.534 1.949-.258-.601 4.534-1.949zm-.402 13.135-.259-.998.516-.127.258.99q.134.513.435.798.305.285.736.355.436.072.958-.063l.292-.076q.41-.107.702-.288.297-.181.467-.429.173-.248.216-.554a1.6 1.6 0 0 0-.048-.656l-.279-1.076.518-.135.28 1.076q.122.47.065.897a1.9 1.9 0 0 1-.277.783 2 2 0 0 1-.596.617 2.8 2.8 0 0 1-.892.393l-.285.075q-.519.134-.975.092a1.96 1.96 0 0 1-1.445-.819 2.5 2.5 0 0 1-.387-.855m4.605-1.901-4.777 1.241-.164-.633 4.776-1.241zm3.033 17.832-4.608-1.291-.05-.666 5.063 1.505.032.43zm-4.382 1.704 4.362-1.971.435-.043.033.43-4.78 2.253zm1.815-.222-.534.04-.208-2.764.534-.041zm-1.697 14.456.107-1.025.529.062-.106 1.018q-.055.525.127.899.186.374.566.591.383.22.918.276l.301.031q.42.045.758-.023.342-.067.588-.238.249-.172.397-.443a1.7 1.7 0 0 0 .185-.632l.115-1.105.533.055-.115 1.106a2.3 2.3 0 0 1-.254.863 1.9 1.9 0 0 1-.533.636 2 2 0 0 1-.775.369 2.8 2.8 0 0 1-.973.056l-.294-.031a2.8 2.8 0 0 1-.944-.255 1.96 1.96 0 0 1-1.067-1.273 2.5 2.5 0 0 1-.063-.937m4.98-.166-4.909-.512.068-.651 4.908.512zm-7.556 17.882-.512-.145.712-2.514.512.145zm4.912-1.187-4.748-1.345.178-.629 4.749 1.345zm-2.623 1.476-.512-.145.618-2.182.512.145zm1.956.879-.515-.146.703-2.482.515.146zm-10.111 22.645-2.949-3.768.354-.567 3.188 4.211-.228.365zm-4.54-1.221 4.682.994.376.223-.228.365-5.186-1.013zm1.594.896-.454-.284 1.469-2.351.454.283zm-10.621 12.194-.396-.355 1.646-1.838.397.355zm4.84 1.196-3.675-3.293.436-.488 3.676 3.294zm-12.796 12.508-.511.403-2.068-2.621q-.344-.436-.379-.88a1.54 1.54 0 0 1 .172-.843q.206-.396.581-.692a2.2 2.2 0 0 1 .827-.419 1.5 1.5 0 0 1 .847.039q.412.146.757.582l2.068 2.621-.508.401-2.068-2.621q-.24-.304-.507-.412a.9.9 0 0 0-.542-.047 1.4 1.4 0 0 0-.544.274q-.268.211-.393.465a.9.9 0 0 0-.083.54q.043.286.283.589zm-11.59 8.135-1.442.768q-.49.261-.909.291a1.25 1.25 0 0 1-.753-.167q-.334-.195-.56-.62a1.4 1.4 0 0 1-.169-.613 1.3 1.3 0 0 1 .124-.604q.134-.29.404-.54l.128-.149 1.355-.722.256.467-1.023.545q-.312.165-.46.383a.85.85 0 0 0-.154.462.93.93 0 0 0 .113.465q.134.252.333.388.2.136.466.124.265-.006.597-.183l.865-.46-2.067-3.884.578-.308zm-4.865-3.002 2.11 1.412-.599.323-2.108-1.371-.019-.036zm-12.351 10.411.184-4.782.636-.204-.287 5.274-.41.132zm-2.676-3.866 2.931 3.784.143.414-.41.131-3.303-4.124zm.638 1.714-.164-.51 2.641-.846.163.511zm-32.794 5.192-.744.886 1 .375-.194.496-.995-.446-.05 1.166-.514-.036.116-1.181-1.034.306-.12-.528 1.06-.236-.603-.963.441-.285.558 1.017.678-.908z"/></svg>